<?xml version="1.0" encoding="UTF-8" standalone="no"?><!DOCTYPE svg PUBLIC "-//W3C//DTD SVG 1.1//EN" "http://www.w3.org/Graphics/SVG/1.1/DTD/svg11.dtd"><svg width="24px" height="24px" viewBox="0 0 24 24" version="1.1" xmlns="http://www.w3.org/2000/svg" xmlns:xlink="http://www.w3.org/1999/xlink" xml:space="preserve" xmlns:serif="http://www.serif.com/" style="fill-rule:evenodd;clip-rule:evenodd;stroke-linejoin:round;stroke-miterlimit:2;"><g><path d="M16,4l-4,4l-4,-4l4,-4l4,4Zm-6.586,0l2.586,2.586l2.586,-2.586l-2.586,-2.586l-2.586,2.586Z" style="fill:#3c3a37;"/><path d="M16,20.002l-4,4l-4,-4l4,-4l4,4Zm-6.586,0l2.586,2.586l2.586,-2.586l-2.586,-2.586l-2.586,2.586Z" style="fill:#3c3a37;"/><path d="M24,4l-4,4l-4,-4l4,-4l4,4Zm-6.586,0l2.586,2.586l2.586,-2.586l-2.586,-2.586l-2.586,2.586Z" style="fill:#3c3a37;"/><path d="M8,4l-4,4l-4,-4l4,-4l4,4Zm-6.586,0l2.586,2.586l2.586,-2.586l-2.586,-2.586l-2.586,2.586Z" style="fill:#3c3a37;"/><g><path d="M24,20.002l-4,4l-4,-4l4,-4l4,4Zm-6.586,0l2.586,2.586l2.586,-2.586l-2.586,-2.586l-2.586,2.586Z" style="fill:#3c3a37;"/><path d="M24,12.002l-4,4l-4,-4l4,-4l4,4Zm-6.586,0l2.586,2.586l2.586,-2.586l-2.586,-2.586l-2.586,2.586Z" style="fill:#3c3a37;"/></g><g><path d="M8,20.002l-4,4l-4,-4l4,-4l4,4Zm-6.586,0l2.586,2.586l2.586,-2.586l-2.586,-2.586l-2.586,2.586Z" style="fill:#3c3a37;"/><path d="M8,12.002l-4,4l-4,-4l4,-4l4,4Zm-6.586,0l2.586,2.586l2.586,-2.586l-2.586,-2.586l-2.586,2.586Z" style="fill:#3c3a37;"/></g></g></svg>